<svg class="svg-icon" style="width: 1em; height: 1em;vertical-align: middle;fill: currentColor;overflow: hidden;" viewBox="0 0 1024 1024" version="1.1" xmlns="http://www.w3.org/2000/svg"><path d="M154.5 306.2c16.8 70.2 70.6 129.2 145.3 149.2 108.4 28.9 219.8-35.5 248.7-144 28.6-107-33.8-216.5-139.5-247.3 7.9 32.8 7.4 67-1.3 99.6-28.9 108.5-140.3 172.9-248.7 144-1.6-0.5-3-1.1-4.5-1.5z" fill="#FFD81A" /><path d="M651.7 756.3c182.4 0 324-174.9 266.3-366.2-26-86.1-94.1-153.9-180.2-179.7-146-43.7-282.3 28.7-338.4 146.6-32.5-16.5-69.9-24.9-109.4-22.3-104.6 6.8-189.5 91.5-196.5 196.2C85.3 654 182.7 756.3 304 756.3h347.7z" fill="#7BBAFF" /><path d="M408 959.9c-4.6 0-9.3-1.3-13.5-4-11.8-7.5-15.2-23.1-7.7-34.9l41.6-65.4c7.5-11.8 23.1-15.2 34.9-7.8 11.8 7.5 15.2 23.1 7.7 34.9l-41.6 65.4c-4.9 7.7-13.1 11.8-21.4 11.8zM574.4 959.9c-4.6 0-9.3-1.3-13.5-4-11.8-7.5-15.2-23.1-7.7-34.9l41.6-65.4c7.5-11.8 23.1-15.2 34.9-7.8 11.8 7.5 15.2 23.1 7.7 34.9l-41.6 65.4c-4.9 7.7-13.1 11.8-21.4 11.8z" fill="#C7E2FF" /></svg>