<svg class="svg-icon" style="width: 1em; height: 1em;vertical-align: middle;fill: currentColor;overflow: hidden;" viewBox="0 0 1024 1024" version="1.1" xmlns="http://www.w3.org/2000/svg"><path d="M651.7 696.3c182.4 0 324-174.9 266.3-366.2-26-86.1-94.1-153.9-180.2-179.7-146-43.7-282.3 28.7-338.4 146.6-32.5-16.5-69.9-24.9-109.4-22.3-104.6 6.8-189.5 91.5-196.5 196.2-8.2 123 89.2 225.4 210.5 225.4h347.7z" fill="#7BBAFF" /><path d="M512 841.9m-44.6 0a44.6 44.6 0 1 0 89.2 0 44.6 44.6 0 1 0-89.2 0Z" fill="#C7E2FF" /><path d="M345.6 841.6m-44.6 0a44.6 44.6 0 1 0 89.2 0 44.6 44.6 0 1 0-89.2 0Z" fill="#C7E2FF" /><path d="M678.4 841.6m-44.6 0a44.6 44.6 0 1 0 89.2 0 44.6 44.6 0 1 0-89.2 0Z" fill="#C7E2FF" /></svg>