<svg class="svg-icon" style="width: 1em; height: 1em;vertical-align: middle;fill: currentColor;overflow: hidden;" viewBox="0 0 1024 1024" version="1.1" xmlns="http://www.w3.org/2000/svg"><path d="M651.7 693.8c182.4 0 324-174.9 266.3-366.2-26-86.1-94.1-153.9-180.2-179.7-146-43.7-282.3 28.7-338.4 146.6-32.5-16.5-69.9-24.9-109.4-22.3-104.7 6.8-189.6 91.6-196.6 196.2-8.2 123 89.2 225.4 210.5 225.4h347.8z" fill="#7BBAFF" /><path d="M384.4 822.8h-8.3l4.4-7c5-7.9 2.7-18.3-5.2-23.3s-18.3-2.7-23.3 5.2l-6.6 10.4-6.6-10.4c-5-7.8-15.4-10.2-23.3-5.2-7.9 5-10.2 15.4-5.2 23.3l4.2 6.6h-7.8-0.1c-9.3 0-16.8 7.5-16.9 16.7-0.1 9.3 7.4 16.9 16.8 16.9h8.3l-4.4 7c-5 7.9-2.7 18.3 5.2 23.3 2.8 1.8 5.9 2.6 9 2.6 5.6 0 11-2.8 14.2-7.8l6.6-10.4 6.6 10.4c3.2 5 8.7 7.8 14.2 7.8 3.1 0 6.2-0.9 9-2.6 7.9-5 10.2-15.4 5.2-23.3l-4.2-6.6H384.1c9.3 0 16.8-7.5 16.9-16.7 0.2-9.3-7.3-16.9-16.6-16.9zM550.8 822.8h-8.3l4.4-7c5-7.9 2.7-18.3-5.2-23.3-7.8-5-18.3-2.7-23.3 5.2L512 808l-6.6-10.4c-5-7.8-15.4-10.2-23.3-5.2-7.9 5-10.2 15.4-5.2 23.3l4.2 6.6h-7.8-0.1c-9.3 0-16.8 7.5-16.9 16.7-0.1 9.3 7.4 16.9 16.8 16.9h8.3l-4.4 7c-5 7.9-2.7 18.3 5.2 23.3 2.8 1.8 5.9 2.6 9 2.6 5.6 0 11-2.8 14.2-7.8l6.6-10.4 6.6 10.4c3.2 5 8.7 7.8 14.2 7.8 3.1 0 6.2-0.9 9-2.6 7.9-5 10.2-15.4 5.2-23.3l-4.2-6.6H550.7c9.3 0 16.8-7.5 16.9-16.7 0.1-9.2-7.4-16.8-16.8-16.8zM717.3 822.8H709l4.4-7c5-7.9 2.7-18.3-5.2-23.3s-18.3-2.7-23.3 5.2l-6.6 10.4-6.6-10.4c-5-7.8-15.4-10.2-23.3-5.2-7.9 5-10.2 15.4-5.2 23.3l4.2 6.6h-7.8-0.1c-9.3 0-16.8 7.5-16.9 16.7-0.1 9.3 7.4 16.9 16.8 16.9h8.3l-4.4 7c-5 7.9-2.7 18.3 5.2 23.3 2.8 1.8 5.9 2.6 9 2.6 5.6 0 11-2.8 14.2-7.8l6.6-10.4 6.6 10.4c3.2 5 8.7 7.8 14.2 7.8 3.1 0 6.2-0.9 9-2.6 7.9-5 10.2-15.4 5.2-23.3l-4.2-6.6H717c9.3 0 16.8-7.5 16.9-16.7 0.2-9.3-7.3-16.9-16.6-16.9z" fill="#C7E2FF" /></svg>