<svg class="svg-icon" style="width: 1em; height: 1em;vertical-align: middle;fill: currentColor;overflow: hidden;" viewBox="0 0 1024 1024" version="1.1" xmlns="http://www.w3.org/2000/svg"><path d="M393.1 384.2m-216.9 0a216.9 216.9 0 1 0 433.8 0 216.9 216.9 0 1 0-433.8 0Z" fill="#FFFBD9" /><path d="M393.1 384.2m-155.9 0a155.9 155.9 0 1 0 311.8 0 155.9 155.9 0 1 0-311.8 0Z" fill="#FFD81A" /><path d="M651.7 856.7c182.4 0 324-174.9 266.3-366.2-26-86.1-94.1-153.9-180.2-179.7-146-43.7-282.3 28.7-338.4 146.6-32.5-16.5-69.9-24.9-109.4-22.3-104.7 6.9-189.6 91.6-196.6 196.2-8.2 123 89.2 225.4 210.5 225.4h347.8z" fill="#7BBAFF" /></svg>