<svg class="svg-icon" style="width: 1em; height: 1em;vertical-align: middle;fill: currentColor;overflow: hidden;" viewBox="0 0 1024 1024" version="1.1" xmlns="http://www.w3.org/2000/svg"><path d="M154.5 408c16.8 70.2 70.6 129.2 145.3 149.2 108.4 28.9 219.8-35.5 248.7-144C577 306.3 514.7 196.7 409 165.9c7.9 32.8 7.4 67-1.3 99.6C378.8 374 267.4 438.4 159 409.5c-1.6-0.5-3-1.1-4.5-1.5z" fill="#FFD81A" /><path d="M651.7 858.1c182.4 0 324-174.9 266.3-366.2-26-86.1-94.1-153.9-180.2-179.7-146-43.7-282.3 28.7-338.4 146.6-32.5-16.5-69.9-24.9-109.4-22.3-104.6 6.8-189.5 91.5-196.5 196.2-8.2 123 89.2 225.4 210.5 225.4h347.7z" fill="#7BBAFF" /></svg>